HIERARCHY
ROOT Hips
{
    OFFSET 0.000000 0.000000 0.000000
    CHANNELS 6 Xposition Yposition Zposition Zrotation Xrotation Yrotation
    JOINT Spine
    {
        OFFSET -0.000000 14.517291 0.000000
        CHANNELS 3 Zrotation Xrotation Yrotation
        JOINT Spine1
        {
            OFFSET -0.000000 37.558300 0.000000
            CHANNELS 3 Zrotation Xrotation Yrotation
            JOINT Neck
            {
                OFFSET -0.000000 37.404057 3.400369
                CHANNELS 3 Zrotation Xrotation Yrotation
                JOINT Head
                {
                    OFFSET -0.000000 24.785618 -3.540803
                    CHANNELS 3 Zrotation Xrotation Yrotation
                    End Site
                    {
                        OFFSET -0.000000 35.408028 0.000000
                    }
                }
            }
            JOINT LeftShoulder
            {
                OFFSET 6.992933 33.973492 -0.192664
                CHANNELS 3 Zrotation Xrotation Yrotation
                JOINT LeftArm
                {
                    OFFSET 21.527611 0.000000 0.000000
                    CHANNELS 3 Zrotation Xrotation Yrotation
                    JOINT LeftForeArm
                    {
                        OFFSET 56.353916 0.000000 0.000000
                        CHANNELS 3 Zrotation Xrotation Yrotation
                        JOINT LeftHand
                        {
                            OFFSET 47.774071 0.000000 0.000000
                            CHANNELS 3 Zrotation Xrotation Yrotation
                            End Site
                            {
                                OFFSET 26.556021 0.000000 0.000000
                            }
                        }
                    }
                }
            }
            JOINT RightShoulder
            {
                OFFSET -7.065357 33.973492 -0.192664
                CHANNELS 3 Zrotation Xrotation Yrotation
                JOINT RightArm
                {
                    OFFSET -21.527611 0.000000 0.000000
                    CHANNELS 3 Zrotation Xrotation Yrotation
                    JOINT RightForeArm
                    {
                        OFFSET -56.353916 0.000000 0.000000
                        CHANNELS 3 Zrotation Xrotation Yrotation
                        JOINT RightHand
                        {
                            OFFSET -47.774071 0.000000 0.000000
                            CHANNELS 3 Zrotation Xrotation Yrotation
                            End Site
                            {
                                OFFSET -26.556021 0.000000 0.000000
                            }
                        }
                    }
                }
            }
        }
    }
    JOINT LeftUpLeg
    {
        OFFSET 17.704014 0.000000 0.000000
        CHANNELS 3 Zrotation Xrotation Yrotation
        JOINT LeftLeg
        {
            OFFSET -0.000000 -81.181816 0.000000
            CHANNELS 3 Zrotation Xrotation Yrotation
            JOINT LeftFoot
            {
                OFFSET -0.000000 -62.821102 0.000000
                CHANNELS 3 Zrotation Xrotation Yrotation
                JOINT LeftToeBase
                {
                    OFFSET -0.000000 -11.507608 26.556021
                    CHANNELS 3 Zrotation Xrotation Yrotation
                    End Site
                    {
                        OFFSET -0.000000 0.000000 7.081605
                    }
                }
            }
        }
    }
    JOINT RightUpLeg
    {
        OFFSET -17.704014 0.000000 0.000000
        CHANNELS 3 Zrotation Xrotation Yrotation
        JOINT RightLeg
        {
            OFFSET -0.000000 -81.181816 0.000000
            CHANNELS 3 Zrotation Xrotation Yrotation
            JOINT RightFoot
            {
                OFFSET -0.000000 -62.821102 0.000000
                CHANNELS 3 Zrotation Xrotation Yrotation
                JOINT RightToeBase
                {
                    OFFSET -0.000000 -11.507608 26.556021
                    CHANNELS 3 Zrotation Xrotation Yrotation
                    End Site
                    {
                        OFFSET -0.000000 0.000000 7.081605
                    }
                }
            }
        }
    }
}
MOTION
Frames:    8
Frame Time:    0.008333
16.960032    156.461563    -115.572693    -3.269473    -4.012576    40.975708    -1.244528    -2.961956    -3.168721    -4.751271    -0.625820    -1.073950    1.113456    -3.568234    -24.260256    16.682203    6.758860    -24.237906    12.147384    4.539397    -23.943937    -29.335842    25.570324    -53.369049    -20.963186    9.614898    -98.740891    0.271678    -15.273706    -6.490426    -10.677729    -9.540494    -7.500027    30.253567    -14.568996    53.592236    -49.875896    -39.318268    7.746625    -4.974106    -37.059341    16.784994    18.828962    -1.214865    0.827960    -12.756900    31.898005    -17.393637    2.758224    -27.985769    43.543907    0.000000    0.000000    0.000000    -15.726774    -18.133078    -11.667388    8.544860    20.555807    -15.102517    5.298005    10.374866    -15.065789    0.000000    0.000000    0.000000    
16.927814    156.450607    -115.590195    -3.263211    -3.995873    40.967434    -1.258566    -2.969887    -3.167223    -4.753082    -0.583852    -1.071552    1.093193    -3.575873    -24.242979    16.689325    6.778996    -24.218477    12.124737    4.524846    -23.937466    -29.333069    25.565527    -53.386002    -20.957632    9.639363    -98.734032    0.190341    -15.235633    -6.549653    -10.695350    -9.526033    -7.512555    30.269314    -14.567920    53.627926    -49.727386    -39.299225    7.846264    -4.904171    -37.006863    16.864613    18.818016    -1.233616    0.875822    -12.735520    31.913540    -17.439440    2.761171    -27.995958    43.551071    0.000000    0.000000    0.000000    -15.745542    -18.166925    -11.676411    8.550819    20.579491    -15.082784    5.302701    10.361892    -15.075620    0.000000    0.000000    0.000000    
16.889698    156.442505    -115.602669    -3.265300    -3.982972    40.961166    -1.266301    -2.975319    -3.166675    -4.764752    -0.584530    -1.071409    1.088623    -3.497047    -24.226669    16.718014    6.755762    -24.194120    12.122146    4.554474    -23.964239    -29.324617    25.572468    -53.392712    -20.942511    9.609050    -98.759079    0.161332    -15.256352    -6.544991    -10.690806    -9.477972    -7.480898    30.248436    -14.557539    53.637211    -49.613178    -39.289970    7.917338    -4.852705    -36.975002    16.938477    18.817085    -1.260325    0.903512    -12.722898    31.930641    -17.438860    2.757880    -27.996941    43.525494    0.000000    0.000000    0.000000    -15.752053    -18.198217    -11.654201    8.568583    20.591902    -15.098470    5.300658    10.348909    -15.075204    0.000000    0.000000    0.000000    
16.851181    156.438202    -115.615906    -3.270329    -3.968411    40.955029    -1.272414    -2.997845    -3.162751    -4.766334    -0.529422    -1.067699    1.050180    -3.535824    -24.213737    16.739412    6.819647    -24.181761    12.099367    4.530539    -23.953146    -29.351179    25.567673    -53.394886    -20.957541    9.663565    -98.752014    0.143053    -15.217207    -6.558954    -10.712577    -9.475427    -7.480976    30.271105    -14.551322    53.662201    -49.481651    -39.298599    8.030899    -4.797461    -36.945503    16.979399    18.816538    -1.287512    0.925457    -12.716176    31.938519    -17.400023    2.729278    -27.993561    43.475445    0.000000    0.000000    0.000000    -15.757709    -18.230661    -11.657874    8.576523    20.603437    -15.080904    5.306286    10.347800    -15.087240    0.000000    0.000000    0.000000    
16.814047    156.430984    -115.628563    -3.271332    -3.956139    40.948475    -1.267543    -3.003792    -3.156705    -4.791796    -0.531715    -1.065918    1.028593    -3.478445    -24.202780    16.774771    6.832459    -24.165068    12.082634    4.563835    -23.963276    -29.338261    25.561766    -53.401184    -20.979336    9.672892    -98.756264    0.163187    -15.237643    -6.558658    -10.718869    -9.404448    -7.446766    30.309252    -14.584659    53.706490    -49.368053    -39.292519    8.114414    -4.725770    -36.908566    17.010931    18.810886    -1.310053    0.943159    -12.699710    31.949015    -17.421825    2.727454    -28.005272    43.490768    0.000000    0.000000    0.000000    -15.763979    -18.262058    -11.649321    8.586627    20.616526    -15.088790    5.289412    10.353481    -15.086949    0.000000    0.000000    0.000000    
16.776726    156.426849    -115.639091    -3.271621    -3.951659    40.944839    -1.264424    -3.011957    -3.144609    -4.804031    -0.498660    -1.060609    1.002006    -3.455168    -24.195181    16.808664    6.832736    -24.149586    12.063978    4.557259    -23.967697    -29.361042    25.567656    -53.390675    -21.000957    9.702382    -98.763992    0.196381    -15.240417    -6.551889    -10.724400    -9.373604    -7.428488    30.323818    -14.598162    53.743187    -49.275818    -39.279518    8.187659    -4.710079    -36.872692    17.014328    18.813477    -1.327772    0.941097    -12.696980    31.955929    -17.432486    2.743176    -27.994328    43.506096    0.000000    0.000000    0.000000    -15.766068    -18.279564    -11.649168    8.601192    20.621559    -15.099580    5.275019    10.350030    -15.078789    0.000000    0.000000    0.000000    
16.736517    156.421188    -115.648926    -3.274534    -3.948221    40.943176    -1.260533    -3.023420    -3.136666    -4.810378    -0.467897    -1.056669    0.962262    -3.466422    -24.189291    16.826677    6.892182    -24.143805    12.032115    4.562401    -23.972261    -29.371037    25.560570    -53.369095    -21.018610    9.747125    -98.762360    0.220276    -15.218846    -6.569633    -10.748096    -9.338535    -7.404458    30.366951    -14.610893    53.794819    -49.213192    -39.269432    8.240922    -4.599615    -36.835716    17.072807    18.820362    -1.346714    0.942126    -12.692609    31.963362    -17.473572    2.760677    -27.995337    43.553642    0.000000    0.000000    0.000000    -15.761395    -18.297993    -11.658354    8.601126    20.628231    -15.102013    5.276438    10.343284    -15.056027    0.000000    0.000000    0.000000    
16.697237    156.422882    -115.658607    -3.271779    -3.958562    40.937000    -1.241598    -3.011311    -3.118159    -4.831584    -0.450305    -1.050026    0.921663    -3.439991    -24.188971    16.879688    6.903054    -24.133701    12.010203    4.570573    -23.968006    -29.380447    25.581644    -53.363712    -21.035925    9.752079    -98.779221    0.276303    -15.245788    -6.519359    -10.750571    -9.312426    -7.392789    30.387739    -14.610629    53.866615    -49.169796    -39.268681    8.261700    -4.570496    -36.827541    17.095619    18.833838    -1.346205    0.917249    -12.709814    31.956343    -17.469553    2.765680    -27.984461    43.581387    0.000000    0.000000    0.000000    -15.749113    -18.300049    -11.660166    8.604824    20.619823    -15.121519    5.270674    10.363467    -15.036603    0.000000    0.000000    0.000000    
